<svg width="16" height="16" viewBox="0 0 16 16" fill="none" xmlns="http://www.w3.org/2000/svg">
<path d="M8 0.5C3.8645 0.5 0.5 3.8645 0.5 8C0.5 12.1355 3.8645 15.5 8 15.5C12.1355 15.5 15.5 12.1355 15.5 8C15.5 3.8645 12.1355 0.5 8 0.5ZM8 14C4.69175 14 2 11.3082 2 8C2 4.69175 4.69175 2 8 2C11.3082 2 14 4.69175 14 8C14 11.3082 11.3082 14 8 14ZM10.9535 5.96222C11.1642 7.16222 10.6587 8.23621 9.53074 8.98621C8.83699 9.44746 8.72675 9.69423 8.71175 9.73923C8.606 10.0527 8.31426 10.25 8.00076 10.25C7.92126 10.25 7.84025 10.2373 7.76075 10.2103C7.3685 10.0783 7.15776 9.65304 7.28976 9.26004C7.51776 8.58429 8.20401 8.06679 8.69976 7.73679C9.63276 7.11654 9.51424 6.44229 9.47599 6.22104C9.37249 5.63154 8.8685 5.12749 8.27825 5.02399C7.823 4.94299 7.382 5.05928 7.03625 5.35028C6.69575 5.63603 6.5 6.05452 6.5 6.49927C6.5 6.91402 6.164 7.24927 5.75 7.24927C5.336 7.24927 5 6.91402 5 6.49927C5 5.61052 5.39074 4.77279 6.07174 4.20129C6.75199 3.62904 7.65201 3.39276 8.53776 3.54651C9.74751 3.75951 10.7405 4.75247 10.9535 5.96222ZM8.75 11.75C8.75 12.164 8.414 12.5 8 12.5C7.586 12.5 7.25 12.164 7.25 11.75C7.25 11.336 7.586 11 8 11C8.414 11 8.75 11.336 8.75 11.75Z" fill="#41416E"/>
</svg>
